<?xml version="1.0" encoding="UTF-8" standalone="no"?>
<!DOCTYPE svg PUBLIC "-//W3C//DTD SVG 1.1//EN" "http://www.w3.org/Graphics/SVG/1.1/DTD/svg11.dtd">
<svg width="100%" height="100%" viewBox="0 0 121 422" version="1.1" xmlns="http://www.w3.org/2000/svg" xmlns:xlink="http://www.w3.org/1999/xlink" xml:space="preserve" xmlns:serif="http://www.serif.com/" style="fill-rule:evenodd;clip-rule:evenodd;stroke-linejoin:round;stroke-miterlimit:2;">
  <g id="switch-module-1p">
    <rect id="sw-bg-module-1port" x="-0" y="0" width="120.833" height="421.982" style="fill:url(#_Linear1);"/>
    <path id="sw-module-1port-1" d="M112.5,178.932c-0,-4.457 -1.771,-8.731 -4.922,-11.883c-3.152,-3.151 -7.426,-4.922 -11.883,-4.922c-19.408,0 -51.148,0 -70.557,0c-4.457,0 -8.731,1.771 -11.883,4.922c-3.151,3.152 -4.922,7.426 -4.922,11.883c0,17.935 0,46.183 0,64.118c0,4.457 1.771,8.731 4.922,11.883c3.152,3.152 7.426,4.922 11.883,4.922c19.409,0 51.149,0 70.557,0c4.457,0 8.731,-1.77 11.883,-4.922c3.151,-3.152 4.922,-7.426 4.922,-11.883c0,-17.935 0,-46.183 0,-64.118Z" style="fill:#2a2a2a;"/>
  </g>
  <defs>
    <linearGradient id="_Linear1" x1="0" y1="0" x2="1" y2="0" gradientUnits="userSpaceOnUse" gradientTransform="matrix(7.11023e-15,857.612,-116.119,5.25136e-14,45.2893,-223.389)">
      <stop offset="0" style="stop-color:#d4d4d4;stop-opacity:1"/>
      <stop offset="0.51" style="stop-color:#c3c3c3;stop-opacity:1"/>
      <stop offset="1" style="stop-color:#909090;stop-opacity:1"/>
    </linearGradient>
  </defs>
</svg>
