<?xml version="1.0" encoding="UTF-8" standalone="no"?>
<!DOCTYPE svg PUBLIC "-//W3C//DTD SVG 1.1//EN" "http://www.w3.org/Graphics/SVG/1.1/DTD/svg11.dtd">
<svg width="100%" height="100%" viewBox="0 0 2445 103" version="1.1" xmlns="http://www.w3.org/2000/svg" xmlns:xlink="http://www.w3.org/1999/xlink" xml:space="preserve" xmlns:serif="http://www.serif.com/" style="fill-rule:evenodd;clip-rule:evenodd;stroke-linejoin:round;stroke-miterlimit:2;"><text x="1158.55px" y="62.189px" style="font-family:'HelveticaNeue-Bold', 'Helvetica Neue';font-weight:700;font-size:50px;">10 Mbps</text><path id="sw-module-1port-1" d="M1143.16,17.13c0,-4.457 -1.77,-8.732 -4.922,-11.883c-3.151,-3.152 -7.426,-4.922 -11.883,-4.922c-19.408,-0 -51.148,-0 -70.556,-0c-4.457,-0 -8.732,1.77 -11.883,4.922c-3.152,3.151 -4.922,7.426 -4.922,11.883c-0,17.934 -0,46.183 -0,64.117c-0,4.457 1.77,8.732 4.922,11.883c3.151,3.152 7.426,4.922 11.883,4.922c19.408,0 51.148,0 70.556,0c4.457,0 8.732,-1.77 11.883,-4.922c3.152,-3.151 4.922,-7.426 4.922,-11.883c0,-17.934 0,-46.183 0,-64.117Z" style="fill:#f7ea3b;"/><text x="119.556px" y="66.845px" style="font-family:'HelveticaNeue-Bold', 'Helvetica Neue';font-weight:700;font-size:50px;">Admin down</text><path id="sw-module-1port-11" serif:id="sw-module-1port-1" d="M104.167,21.785c-0,-4.457 -1.771,-8.731 -4.922,-11.883c-3.152,-3.151 -7.426,-4.922 -11.883,-4.922c-19.409,0 -51.149,0 -70.557,0c-4.457,0 -8.731,1.771 -11.883,4.922c-3.151,3.152 -4.922,7.426 -4.922,11.883c-0,17.935 -0,46.183 -0,64.118c0,4.457 1.771,8.732 4.922,11.883c3.152,3.152 7.426,4.922 11.883,4.922c19.408,0 51.148,0 70.557,0c4.457,0 8.731,-1.77 11.883,-4.922c3.151,-3.151 4.922,-7.426 4.922,-11.883c-0,-17.935 -0,-46.183 -0,-64.118Z" style="fill:#ca2d2d;"/><text x="576.078px" y="62.776px" style="font-family:'HelveticaNeue-Bold', 'Helvetica Neue';font-weight:700;font-size:50px;">Operational down</text><path id="sw-module-1port-12" serif:id="sw-module-1port-1" d="M560.689,17.717c-0,-4.457 -1.771,-8.732 -4.922,-11.883c-3.152,-3.152 -7.426,-4.922 -11.883,-4.922c-19.408,-0 -51.148,-0 -70.557,-0c-4.457,-0 -8.731,1.77 -11.883,4.922c-3.151,3.151 -4.922,7.426 -4.922,11.883c0,17.934 0,46.183 0,64.118c0,4.457 1.771,8.731 4.922,11.882c3.152,3.152 7.426,4.923 11.883,4.923c19.409,-0 51.149,-0 70.557,-0c4.457,-0 8.731,-1.771 11.883,-4.923c3.151,-3.151 4.922,-7.425 4.922,-11.882c-0,-17.935 -0,-46.184 -0,-64.118Z" style="fill:#969696;"/><text x="1527.03px" y="62.189px" style="font-family:'HelveticaNeue-Bold', 'Helvetica Neue';font-weight:700;font-size:50px;">100 Mbps</text><path id="sw-module-1port-13" serif:id="sw-module-1port-1" d="M1509.9,16.805c0,-4.457 -1.77,-8.731 -4.922,-11.883c-3.151,-3.151 -7.426,-4.922 -11.883,-4.922c-19.408,0 -51.148,0 -70.556,0c-4.457,-0 -8.732,1.771 -11.883,4.922c-3.152,3.152 -4.922,7.426 -4.922,11.883c-0,17.935 -0,46.183 -0,64.118c-0,4.457 1.77,8.731 4.922,11.883c3.151,3.151 7.426,4.922 11.883,4.922c19.408,-0 51.148,-0 70.556,-0c4.457,-0 8.732,-1.771 11.883,-4.922c3.152,-3.152 4.922,-7.426 4.922,-11.883c0,-17.935 0,-46.183 0,-64.118Z" style="fill:#ecaa1a;"/><text x="1919.15px" y="62.189px" style="font-family:'HelveticaNeue-Bold', 'Helvetica Neue';font-weight:700;font-size:50px;">1 Gbps</text><path id="sw-module-1port-14" serif:id="sw-module-1port-1" d="M1902.02,16.805c-0,-4.457 -1.771,-8.731 -4.922,-11.883c-3.152,-3.151 -7.426,-4.922 -11.883,-4.922c-19.408,0 -51.148,0 -70.557,0c-4.457,-0 -8.731,1.771 -11.883,4.922c-3.151,3.152 -4.922,7.426 -4.922,11.883c0,17.935 0,46.183 0,64.118c0,4.457 1.771,8.731 4.922,11.883c3.152,3.151 7.426,4.922 11.883,4.922c19.409,-0 51.149,-0 70.557,-0c4.457,-0 8.731,-1.771 11.883,-4.922c3.151,-3.152 4.922,-7.426 4.922,-11.883c-0,-17.935 -0,-46.183 -0,-64.118Z" style="fill:#5fb300;"/><text x="2248.27px" y="62.189px" style="font-family:'HelveticaNeue-Bold', 'Helvetica Neue';font-weight:700;font-size:50px;">&gt;1 Gbps</text><path id="sw-module-1port-15" serif:id="sw-module-1port-1" d="M2231.13,16.805c-0,-4.457 -1.771,-8.731 -4.922,-11.883c-3.152,-3.151 -7.426,-4.922 -11.883,-4.922c-19.409,0 -51.149,0 -70.557,0c-4.457,-0 -8.731,1.771 -11.883,4.922c-3.151,3.152 -4.922,7.426 -4.922,11.883c-0,17.935 -0,46.183 -0,64.118c-0,4.457 1.771,8.731 4.922,11.883c3.152,3.151 7.426,4.922 11.883,4.922c19.408,-0 51.148,-0 70.557,-0c4.457,-0 8.731,-1.771 11.883,-4.922c3.151,-3.152 4.922,-7.426 4.922,-11.883c-0,-17.935 -0,-46.183 -0,-64.118Z" style="fill:#63ce2a;"/></svg>
